@startuml
page 4x1
top to bottom direction
class api.FileController {
  + void uploadFile(MultipartFile file, Long objectId)
  + void deleteFile(Long fileId, Long objectId)
  + void downloadFile(HttpServletResponse response, Long fileId)
  + List<StoredFileDTO> getAll(Long objectId)
  + StoredFileDTO getById(Long fileId)
}

class api.ServiceDocumentController {
  + ResponseListDTO<ServiceDocumentDTO> getAll(EntityCondition filter, SortFields sort, LimitOffset limit, Long id)
  + ServiceDocumentDTO getOne(Long id, Long documentId)
  + ServiceDocumentDTO create(Long id, Long documentId)
  + ServiceDocumentDTO update(Long id, Long documentId, ServiceDocumentDTO dto)
  + void remove(Long id, Long documentId)
}
class api.ServiceService {

}

class api.ServiceDocumentService {
   + ResponseListDTO<ServiceDocumentDTO> getAll(EntityCondition filter, SortFields sort, LimitOffset limit, Long id)
   + ServiceDocumentDTO getOne(Long id, Long documentId)
   + ServiceDocumentDTO create(Long id, Long documentId)
   + ServiceDocumentDTO update(Long id, Long documentId, ServiceDocumentDTO dto)
   + void remove(Long id, Long documentId)
}

class infrastructure.DynamicMapper {
  + TView toDto(TEntity entity)
  + TEntity toEntity(TView entity)
  + TEntity toEntity(TEntity entity, TView entity)
}

class dto.ServiceDocumentDTO {
- Long id
- String nameFull
- String nameShort
- int documentCategoryId
- LocalDate activeFrom
- LocalDate activeTo
- String notes
- boolean mandatory
- boolean personEnabled
- boolean businessmanEnabled
- boolean companyEnabled
- Boolean signRequired
- Integer restrictions
}

class dto.FileDTO {
- String id
- String name
- Integer size
- String extension
- Integer orderNumber
- String mimeType
- String comment
}
ServiceDocumentDTO "1" *-l- "1" FileDTO


class api.ServiceDocumentRepository {
+ Class<ServiceEntity> getEntityClass()
+ List<ServiceEntity> findByNameShort(String)
+ List<ServiceEntity> findByTextSearchOnAllAttr(String)
}

class db.ServiceDocumentEntity {
}

ServiceDocumentController --|> FileController

ServiceDocumentController -u-> ServiceDocumentDTO
ServiceDocumentController --> ServiceDocumentService
ServiceDocumentController -u-> DynamicMapper
ServiceDocumentService --> ServiceDocumentRepository
ServiceDocumentRepository --> ServiceDocumentEntity
ServiceDocumentService --> ServiceDocumentEntity
DynamicMapper --> ServiceDocumentEntity
ServiceDocumentService --> ServiceService

@enduml